<svg width="295" height="69" viewBox="0 0 295 69" fill="none" xmlns="http://www.w3.org/2000/svg">
<path d="M98.48 48.408C97.904 48.792 97.12 49.224 96.128 49.704C95.136 50.184 93.968 50.584 92.624 50.904C91.312 51.224 89.872 51.384 88.304 51.384C85.616 51.352 83.184 50.872 81.008 49.944C78.864 49.016 77.04 47.752 75.536 46.152C74.032 44.552 72.864 42.712 72.032 40.632C71.232 38.52 70.832 36.28 70.832 33.912C70.832 31.32 71.248 28.936 72.08 26.76C72.944 24.552 74.144 22.648 75.68 21.048C77.216 19.416 79.024 18.152 81.104 17.256C83.216 16.36 85.52 15.912 88.016 15.912C90.096 15.912 91.984 16.2 93.68 16.776C95.376 17.32 96.832 17.976 98.048 18.744L96.176 23.064C95.216 22.424 94.048 21.816 92.672 21.24C91.328 20.664 89.824 20.376 88.16 20.376C86.464 20.376 84.864 20.712 83.36 21.384C81.856 22.056 80.528 23 79.376 24.216C78.224 25.432 77.312 26.856 76.64 28.488C76 30.088 75.68 31.816 75.68 33.672C75.68 35.56 75.968 37.32 76.544 38.952C77.152 40.552 78 41.944 79.088 43.128C80.208 44.312 81.552 45.24 83.12 45.912C84.688 46.584 86.448 46.92 88.4 46.92C90.16 46.92 91.728 46.648 93.104 46.104C94.48 45.56 95.616 44.952 96.512 44.28L98.48 48.408ZM105.216 13.848H109.68V51H105.216V13.848ZM126.62 51.48C124.348 51.48 122.396 51.032 120.764 50.136C119.132 49.208 117.868 47.96 116.972 46.392C116.108 44.792 115.676 42.968 115.676 40.92C115.676 38.968 116.172 37.192 117.164 35.592C118.156 33.992 119.484 32.712 121.148 31.752C122.812 30.792 124.668 30.312 126.716 30.312C129.34 30.312 131.516 31.08 133.244 32.616C134.972 34.152 136.14 36.264 136.748 38.952L120.38 44.712L119.324 42.072L132.764 37.176L131.804 37.8C131.42 36.744 130.78 35.832 129.884 35.064C128.988 34.264 127.82 33.864 126.38 33.864C125.164 33.864 124.076 34.168 123.116 34.776C122.156 35.352 121.404 36.152 120.86 37.176C120.316 38.2 120.044 39.368 120.044 40.68C120.044 42.056 120.332 43.272 120.908 44.328C121.484 45.352 122.268 46.168 123.26 46.776C124.284 47.352 125.436 47.64 126.716 47.64C127.58 47.64 128.412 47.48 129.212 47.16C130.044 46.84 130.812 46.424 131.516 45.912L133.58 49.224C132.588 49.896 131.468 50.44 130.22 50.856C129.004 51.272 127.804 51.48 126.62 51.48ZM150.597 51.48C148.741 51.48 147.045 51.08 145.509 50.28C144.005 49.48 142.805 48.312 141.909 46.776C141.045 45.208 140.613 43.304 140.613 41.064C140.613 38.856 141.077 36.952 142.005 35.352C142.933 33.72 144.165 32.472 145.701 31.608C147.269 30.744 148.981 30.312 150.837 30.312C152.693 30.312 154.261 30.744 155.541 31.608C156.821 32.44 157.797 33.432 158.469 34.584L158.181 35.352L158.613 31.128H162.741V51H158.277V45.816L158.757 46.968C158.629 47.288 158.341 47.704 157.893 48.216C157.477 48.696 156.901 49.192 156.165 49.704C155.461 50.216 154.645 50.648 153.717 51C152.789 51.32 151.749 51.48 150.597 51.48ZM151.797 47.784C152.917 47.784 153.925 47.576 154.821 47.16C155.717 46.744 156.453 46.168 157.029 45.432C157.637 44.664 158.053 43.752 158.277 42.696V38.808C158.021 37.848 157.573 37.016 156.933 36.312C156.293 35.576 155.525 35.016 154.629 34.632C153.733 34.216 152.741 34.008 151.653 34.008C150.469 34.008 149.381 34.296 148.389 34.872C147.397 35.448 146.597 36.248 145.989 37.272C145.413 38.296 145.125 39.496 145.125 40.872C145.125 42.152 145.429 43.32 146.037 44.376C146.645 45.432 147.461 46.264 148.485 46.872C149.509 47.48 150.613 47.784 151.797 47.784ZM174.45 31.128L174.882 36.888L174.642 36.12C175.154 34.904 175.89 33.88 176.85 33.048C177.842 32.184 178.866 31.528 179.922 31.08C181.01 30.6 181.954 30.36 182.754 30.36L182.514 34.776C181.01 34.68 179.682 34.968 178.53 35.64C177.41 36.312 176.514 37.208 175.842 38.328C175.202 39.448 174.882 40.648 174.882 41.928V51H170.466V31.128H174.45Z" fill="black"/>
<path d="M198.992 16.296H203.648V46.536H221.264V51H198.992V16.296ZM236.003 51.48C234.147 51.48 232.451 51.08 230.915 50.28C229.411 49.48 228.211 48.312 227.315 46.776C226.451 45.208 226.019 43.304 226.019 41.064C226.019 38.856 226.483 36.952 227.411 35.352C228.339 33.72 229.571 32.472 231.107 31.608C232.675 30.744 234.387 30.312 236.243 30.312C238.099 30.312 239.667 30.744 240.947 31.608C242.227 32.44 243.203 33.432 243.875 34.584L243.587 35.352L244.019 31.128H248.147V51H243.683V45.816L244.163 46.968C244.035 47.288 243.747 47.704 243.299 48.216C242.883 48.696 242.307 49.192 241.571 49.704C240.867 50.216 240.051 50.648 239.123 51C238.195 51.32 237.155 51.48 236.003 51.48ZM237.203 47.784C238.323 47.784 239.331 47.576 240.227 47.16C241.123 46.744 241.859 46.168 242.435 45.432C243.043 44.664 243.459 43.752 243.683 42.696V38.808C243.427 37.848 242.979 37.016 242.339 36.312C241.699 35.576 240.931 35.016 240.035 34.632C239.139 34.216 238.147 34.008 237.059 34.008C235.875 34.008 234.787 34.296 233.795 34.872C232.803 35.448 232.003 36.248 231.395 37.272C230.819 38.296 230.531 39.496 230.531 40.872C230.531 42.152 230.835 43.32 231.443 44.376C232.051 45.432 232.867 46.264 233.891 46.872C234.915 47.48 236.019 47.784 237.203 47.784ZM267.968 51.48C266.144 51.48 264.528 51.08 263.12 50.28C261.744 49.48 260.64 48.472 259.808 47.256L260.336 45.864V51H255.872V13.848H260.288V35.688L260.144 34.008C260.944 32.92 262.08 32.04 263.552 31.368C265.056 30.664 266.72 30.312 268.544 30.312C270.336 30.312 271.968 30.744 273.44 31.608C274.912 32.472 276.08 33.688 276.944 35.256C277.84 36.792 278.288 38.632 278.288 40.776C278.288 43.016 277.808 44.936 276.848 46.536C275.92 48.136 274.672 49.368 273.104 50.232C271.536 51.064 269.824 51.48 267.968 51.48ZM267.056 47.688C268.336 47.688 269.488 47.384 270.512 46.776C271.536 46.168 272.336 45.352 272.912 44.328C273.488 43.272 273.776 42.072 273.776 40.728C273.776 39.448 273.472 38.296 272.864 37.272C272.288 36.216 271.488 35.384 270.464 34.776C269.472 34.168 268.336 33.864 267.056 33.864C265.968 33.864 264.96 34.072 264.032 34.488C263.104 34.904 262.32 35.48 261.68 36.216C261.04 36.92 260.592 37.752 260.336 38.712V42.696C260.592 43.656 261.024 44.52 261.632 45.288C262.24 46.024 263.008 46.616 263.936 47.064C264.864 47.48 265.904 47.688 267.056 47.688Z" fill="black"/>
<rect width="68.1087" height="68.1087" rx="34.0544" fill="#64FFE3"/>
<g filter="url(#filter0_i_630_179)">
<path fill-rule="evenodd" clip-rule="evenodd" d="M29.7427 25.6368C28.4313 24.4573 26.475 24.5337 25.373 25.8076L25.2603 25.9379C20.9263 30.9478 20.5836 37.2934 24.528 43.0144L25.0441 43.7628C26.047 45.2175 27.9856 45.6285 29.3742 44.6808C30.7628 43.7332 31.012 43.6789 30.009 42.2243L28.3172 40.3311C26.0375 37.0244 26.2676 32.3695 28.7726 29.4738L30.01 28.1071C31.1119 26.8333 31.054 26.8164 29.7427 25.6368Z" fill="url(#paint0_linear_630_179)" fill-opacity="0.8"/>
</g>
<path d="M29.9498 25.4064C28.5201 24.1204 26.3632 24.1898 25.1389 25.6049L25.0262 25.7358C22.8185 28.2879 21.6181 31.1917 21.4802 34.1956C21.3425 37.1992 22.2679 40.2815 24.2734 43.1903L24.7896 43.9387C25.8809 45.5213 28.0074 45.9881 29.5483 44.9368C29.8865 44.706 30.1785 44.5142 30.393 44.3439C30.6052 44.1755 30.7945 43.9885 30.8802 43.7452C30.9712 43.4864 30.9248 43.228 30.8129 42.9664C30.7035 42.7106 30.5142 42.4118 30.2636 42.0483L30.2526 42.0321L30.2398 42.0185L28.5606 40.1373C26.372 36.9453 26.6012 32.4614 29.0015 29.6813L29.0021 29.6821L30.2397 28.3144L30.2446 28.3095C30.516 27.9958 30.7344 27.7389 30.8774 27.5182C31.0215 27.2959 31.1232 27.0601 31.0888 26.7966C31.0555 26.5421 30.9028 26.3294 30.7202 26.1312C30.5351 25.9303 30.2717 25.6959 29.9498 25.4064Z" stroke="url(#paint1_linear_630_179)" stroke-opacity="0.5" stroke-width="0.61917"/>
<g filter="url(#filter1_i_630_179)">
<path fill-rule="evenodd" clip-rule="evenodd" d="M18.6665 21.8721C16.92 20.3011 14.3143 20.4029 12.8466 22.0995L12.6965 22.273C6.92405 28.9458 6.46766 37.3975 11.7212 45.0173L12.4085 46.0141C13.7443 47.9516 16.3264 48.499 18.1758 47.2368C20.0252 45.9746 20.3571 45.9024 19.0214 43.9649L16.768 41.4434C13.7316 37.0393 14.0382 30.8394 17.3745 26.9826L19.0225 25.1623C20.4902 23.4656 20.4131 23.4431 18.6665 21.8721Z" fill="url(#paint2_linear_630_179)"/>
</g>
<path d="M18.8738 21.6418C17.0089 19.9643 14.2031 20.0592 12.613 21.897L12.4624 22.07C9.53536 25.4536 7.94725 29.3004 7.76479 33.2761C7.58244 37.2513 8.80632 41.3346 11.4663 45.1927L12.1539 46.1898C13.5781 48.2553 16.348 48.8585 18.3499 47.4926C18.8032 47.1833 19.1865 46.9317 19.4683 46.7081C19.748 46.4861 19.9811 46.2526 20.0852 45.9571C20.1946 45.6462 20.1409 45.3303 19.9972 44.9943C19.8559 44.6639 19.6098 44.2738 19.276 43.7897L19.265 43.7736L19.2524 43.7586L17.0112 41.2495C14.0647 36.958 14.3731 30.9257 17.6091 27.185L17.6085 27.1842L19.2525 25.3699L19.2573 25.365L19.2568 25.3642C19.6195 24.9448 19.9056 24.6085 20.0914 24.3218C20.2782 24.0335 20.3977 23.7455 20.3567 23.4305C20.3167 23.1245 20.1328 22.8612 19.8929 22.6008C19.6505 22.3377 19.3045 22.0292 18.8738 21.6418Z" stroke="url(#paint3_linear_630_179)" stroke-opacity="0.5" stroke-width="0.61917"/>
<path d="M46.0841 16.296C49.5721 16.296 52.3081 17.016 54.2921 18.456C56.3081 19.864 57.3161 22.072 57.3161 25.08C57.3161 26.904 56.9001 28.488 56.0681 29.832C55.2361 31.176 54.0681 32.232 52.5641 33C51.0921 33.768 49.3481 34.2 47.3321 34.296L46.6601 31.896C48.9961 31.96 51.0921 32.376 52.9481 33.144C54.8041 33.912 56.2761 34.984 57.3641 36.36C58.4521 37.736 58.9961 39.368 58.9961 41.256C58.9961 42.984 58.6761 44.472 58.0361 45.72C57.3961 46.936 56.5321 47.944 55.4441 48.744C54.3561 49.512 53.1241 50.088 51.7481 50.472C50.3721 50.824 48.9481 51 47.4761 51H37.1561V16.296H46.0841ZM47.0441 31.512C48.9641 31.512 50.3561 30.984 51.2201 29.928C52.0841 28.84 52.5161 27.528 52.5161 25.992C52.5161 24.168 51.9561 22.84 50.8361 22.008C49.7161 21.176 48.2121 20.76 46.3241 20.76H41.8121V31.512H47.0441ZM47.2361 46.68C48.5161 46.68 49.6841 46.488 50.7401 46.104C51.8281 45.72 52.6761 45.128 53.2841 44.328C53.9241 43.528 54.2441 42.52 54.2441 41.304C54.2441 39.96 53.8761 38.904 53.1401 38.136C52.4361 37.368 51.5241 36.824 50.4041 36.504C49.2841 36.152 48.1321 35.976 46.9481 35.976H41.8121V46.68H47.2361Z" fill="white"/>
<defs>
<filter id="filter0_i_630_179" x="21.1562" y="24.1807" width="10.5596" height="21.9395" filterUnits="userSpaceOnUse" color-interpolation-filters="sRGB">
<feFlood flood-opacity="0" result="BackgroundImageFix"/>
<feBlend mode="normal" in="SourceGraphic" in2="BackgroundImageFix" result="shape"/>
<feColorMatrix in="SourceAlpha" type="matrix" values="0 0 0 0 0 0 0 0 0 0 0 0 0 0 0 0 0 0 127 0" result="hardAlpha"/>
<feOffset dx="0.309585" dy="0.309585"/>
<feGaussianBlur stdDeviation="0.773963"/>
<feComposite in2="hardAlpha" operator="arithmetic" k2="-1" k3="1"/>
<feColorMatrix type="matrix" values="0 0 0 0 0.392157 0 0 0 0 0.92549 0 0 0 0 1 0 0 0 0.34 0"/>
<feBlend mode="normal" in2="shape" result="effect1_innerShadow_630_179"/>
</filter>
<filter id="filter1_i_630_179" x="7.4375" y="20.1387" width="13.5479" height="28.707" filterUnits="userSpaceOnUse" color-interpolation-filters="sRGB">
<feFlood flood-opacity="0" result="BackgroundImageFix"/>
<feBlend mode="normal" in="SourceGraphic" in2="BackgroundImageFix" result="shape"/>
<feColorMatrix in="SourceAlpha" type="matrix" values="0 0 0 0 0 0 0 0 0 0 0 0 0 0 0 0 0 0 127 0" result="hardAlpha"/>
<feOffset dx="0.309585" dy="0.309585"/>
<feGaussianBlur stdDeviation="0.773963"/>
<feComposite in2="hardAlpha" operator="arithmetic" k2="-1" k3="1"/>
<feColorMatrix type="matrix" values="0 0 0 0 0.392157 0 0 0 0 0.92549 0 0 0 0 1 0 0 0 0.34 0"/>
<feBlend mode="normal" in2="shape" result="effect1_innerShadow_630_179"/>
</filter>
<linearGradient id="paint0_linear_630_179" x1="32.3824" y1="26.478" x2="21.1316" y2="40.8668" gradientUnits="userSpaceOnUse">
<stop stop-color="white"/>
<stop offset="1" stop-color="white" stop-opacity="0.8"/>
</linearGradient>
<linearGradient id="paint1_linear_630_179" x1="20.3724" y1="32.1327" x2="35.9933" y2="37.5747" gradientUnits="userSpaceOnUse">
<stop stop-color="white" stop-opacity="0.6"/>
<stop offset="1" stop-color="white" stop-opacity="0.1"/>
</linearGradient>
<linearGradient id="paint2_linear_630_179" x1="22.1825" y1="22.9924" x2="7.19748" y2="42.1569" gradientUnits="userSpaceOnUse">
<stop stop-color="white"/>
<stop offset="1" stop-color="white" stop-opacity="0.8"/>
</linearGradient>
<linearGradient id="paint3_linear_630_179" x1="6.18637" y1="30.5239" x2="26.9918" y2="37.7721" gradientUnits="userSpaceOnUse">
<stop stop-color="white" stop-opacity="0.6"/>
<stop offset="1" stop-color="white" stop-opacity="0.1"/>
</linearGradient>
</defs>
</svg>
